<?xml version="1.0" encoding="UTF-8" standalone="no"?>
<svg width="1024px" height="843px" viewBox="0 0 1024 843" version="1.1" xmlns="http://www.w3.org/2000/svg" xmlns:xlink="http://www.w3.org/1999/xlink" xmlns:sketch="http://www.bohemiancoding.com/sketch/ns">
    <title>logo</title>
    <description>Created with Sketch (http://www.bohemiancoding.com/sketch)</description>
    <defs>
        <linearGradient x1="100%" y1="50%" x2="0%" y2="41.1015573%" id="linearGradient-1">
            <stop stop-color="#DE136E" offset="0%"></stop>
            <stop stop-color="#670E2E" offset="100%"></stop>
        </linearGradient>
        <linearGradient x1="68.0377708%" y1="0%" x2="0%" y2="100%" id="linearGradient-2">
            <stop stop-color="#B4E758" offset="0%"></stop>
            <stop stop-color="#3E8F27" offset="100%"></stop>
        </linearGradient>
        <path d="M819.988401,53.9776244 C842.394175,84.4630159 849.564022,106.206273 860.094736,141.623125 C881.828336,304.137161 802.960013,353.00345 689.36274,447.149512 C676.143334,458.133219 520.871322,589.265234 517.510456,571.332651 C517.06234,568.866921 546.413904,112.034363 546.862019,110.241104 C555.376213,74.6000951 565.906927,64.7371744 593.690086,43.666389 C613.183109,35.8208839 649.256405,26.630435 670.765948,19.9057163 C744.929059,-4.52742842 765.990486,-19.0976523 819.988401,53.9776244 Z M819.988401,53.9776244" id="path-3"></path>
        <linearGradient x1="30.6542231%" y1="0%" x2="100%" y2="100%" id="linearGradient-4">
            <stop stop-color="#40A6FC" offset="0%"></stop>
            <stop stop-color="#2537AC" offset="100%"></stop>
        </linearGradient>
        <path d="M193.503996,57.3904355 C171.541107,88.1030272 164.817774,110.072618 154.732774,145.717159 C135.459218,308.695657 214.794552,356.445891 329.987665,448.807845 C343.434332,459.568461 500.760333,588.471675 503.673778,570.537315 C504.122,568.07134 468.040111,111.641875 467.591889,109.848439 C458.627444,74.2038982 447.870111,64.7883591 419.63211,43.9396654 C400.134443,36.3175624 363.828443,27.7987413 342.313776,21.2975358 C267.460664,-2.24131187 246.170108,-16.5888 193.503996,57.3904355 Z M193.503996,57.3904355" id="path-5"></path>
        <linearGradient x1="0%" y1="50%" x2="100%" y2="42.3268431%" id="linearGradient-6">
            <stop stop-color="#FED666" offset="0%"></stop>
            <stop stop-color="#FD6E22" offset="100%"></stop>
        </linearGradient>
        <path d="M434.903505,548.873215 C366.099528,512.117508 156.32584,387.282577 84.8324564,412.384035 C17.5972998,436.140772 3.92615127,519.065233 0.116159058,580.698278 C-0.780309697,602.213813 2.80556532,845.608311 36.1990265,835.522903 C83.9359877,812.438527 137.94823,771.200416 193.081059,742.513036 C288.106747,693.2066 397.700052,639.41776 497.432201,599.748492 C519.619803,591.007805 441.178787,552.683257 434.679388,549.097335 L434.903505,548.873215 Z M434.903505,548.873215" id="path-7"></path>
    </defs>
    <g id="Page 1" stroke="none" stroke-width="1" fill="none" fill-rule="evenodd">
        <g id="Слой_x0020_1">
            <path d="M942.851765,418.791833 C1009.63971,443.895446 1021.5181,527.275304 1023.98343,588.689501 C1024.43167,610.206884 1015.91509,853.622277 982.521116,842.639447 C935.455784,818.65653 882.115075,776.070043 827.653763,746.483642 C733.747221,695.379858 625.272838,639.120867 526.211521,597.430938 C504.2477,588.241222 583.362281,551.706499 589.861779,547.89613 C659.563294,512.482104 872.029647,392.119243 942.851765,418.791833 Z M942.851765,418.791833" id="Shape" fill="url(#linearGradient-1)"></path>
            <use id="Shape" fill="url(#linearGradient-2)" xlink:href="#path-3"></use>
            <use id="Shape-1" xlink:href="#path-3"></use>
            <use id="Shape-2" xlink:href="#path-3"></use>
            <use id="Shape" fill="url(#linearGradient-4)" xlink:href="#path-5"></use>
            <use id="Shape-1" xlink:href="#path-5"></use>
            <use id="Shape-2" xlink:href="#path-5"></use>
            <use id="Shape" fill="url(#linearGradient-6)" xlink:href="#path-7"></use>
            <use id="Shape-1" xlink:href="#path-7"></use>
            <use id="Shape-2" xlink:href="#path-7"></use>
        </g>
    </g>
</svg>